<?xml version="1.0" encoding="UTF-8"?>
<svg id="Layer_1" xmlns="http://www.w3.org/2000/svg" version="1.1" viewBox="0 0 183.86 179.38">
  <!-- Generator: Adobe Illustrator 29.8.1, SVG Export Plug-In . SVG Version: 2.1.1 Build 2)  -->
  <defs>
    <style>
      .st0, .st1, .st2 {
        display: none;
      }

      .st0, .st3 {
        isolation: isolate;
      }

      .st4, .st1 {
        fill: #fff;
      }

      .st3 {
        font-family: Oreon-Fat, Oreon;
        font-size: 148.32px;
        font-weight: 900;
      }
    </style>
  </defs>
  <g class="st0">
    <text class="st3" transform="translate(-530.17 306.76)"><tspan x="0" y="0">SINATLE MEDIA</tspan></text>
  </g>
  <polygon class="st1" points="-351.07 25.74 -344.75 41.71 -327.66 47.62 -344.75 53.53 -351.07 69.5 -357.39 53.53 -374.48 47.62 -357.39 41.71 -351.07 25.74"/>
  <polygon class="st1" points="-349.78 96.58 -343.45 112.55 -326.37 118.46 -343.45 124.37 -349.78 140.35 -356.1 124.37 -373.18 118.46 -356.1 112.55 -349.78 96.58"/>
  <g class="st2">
    <path d="M-469.17,197.68c5.63.73,11.27,1.45,16.9,2.18.73.09,1.39-.64,1.47-1.3.09-.77-.35-1.39-1.07-1.65-2.94-1.04-5.88-2.08-8.82-3.12v2.89c.27-.1.5-.18.78-.2,1.73-.1,1.99-2.36.4-2.95-3.15-1.17-6.43-1.86-9.78-2.11v3c2.42-.28,4.83-.57,7.25-.85.74-.09,1.38-.5,1.47-1.3.09-.73-.34-1.44-1.07-1.65-2.59-.71-5.17-1.42-7.76-2.13l-.4,2.95c4.14.19,8.27-.1,12.35-.8,1.24-.21,1.49-2.21.36-2.74-3.46-1.62-7.1-2.57-10.91-2.83v3c2.74-.03,5.46-.21,8.18-.55.8-.1,1.5-.62,1.5-1.5,0-.8-.69-1.52-1.5-1.5-1.83.05-3.67.1-5.5.14-1.93.05-1.93,2.92,0,3,3.09.14,6.18.27,9.27.41l-.76-2.8c-1.8.95-3.72,1.57-5.72,1.94-.8.14-1.25,1.11-1.05,1.85.23.84,1.05,1.19,1.85,1.05,2.25-.41,4.41-1.18,6.44-2.24,1.38-.72.65-2.73-.76-2.8-3.09-.14-6.18-.27-9.27-.41v3c1.83-.05,3.67-.1,5.5-.14v-3c-2.72.34-5.44.52-8.18.55-1.95.02-1.91,2.87,0,3,3.25.22,6.45,1.04,9.4,2.42l.36-2.74c-3.81.66-7.68.87-11.55.69-1.71-.08-2.01,2.5-.4,2.95,2.59.71,5.17,1.42,7.76,2.13l.4-2.95c-2.42.28-4.83.57-7.25.85-1.89.22-1.96,2.85,0,3,3.08.23,6.09.93,8.98,2l.4-2.95c-.55.03-1.06.11-1.58.31-1.39.53-1.45,2.38,0,2.89,2.94,1.04,5.88,2.08,8.82,3.12l.4-2.95c-5.63-.73-11.27-1.45-16.9-2.18-.8-.1-1.5.76-1.5,1.5,0,.9.69,1.4,1.5,1.5h0v.02Z"/>
  </g>
  <g class="st2">
    <path d="M-455.43,192.76c-3.23.4-6.43.15-9.54-.8l-.4,2.95,12.35-1.51c1.9-.23,1.96-2.83,0-3-4.28-.37-8.55-.14-12.78.63-1.4.25-1.46,2.69,0,2.89,1.21.17,2.37.24,3.59.13,1.58-.15,2.16-2.53.4-2.95s-3.51-.75-5.29-1.02l-.4,2.95c5.36.07,10.72-.41,15.99-1.4,1.14-.21,1.41-1.76.66-2.51-.94-.94-2.13-.9-3.37-.84-1.39.06-2.78.13-4.18.19-2.84.13-5.69.26-8.53.39-1.59.07-2.15,2.68-.4,2.95,3.17.49,6.35.83,9.54,1.01,1.67.09,2.06-2.61.4-2.95-2.87-.58-5.76-1.04-8.67-1.42v3c3.23-.12,6.44-.54,9.59-1.24,1.27-.28,1.45-2.12.36-2.74-2.8-1.58-5.98-1.83-9.12-1.99l.76,2.8c2.07-.99,4.23-1.75,6.46-2.31,1.55-.4,1.29-2.39,0-2.89-1.85-.72-3.85-.99-5.82-.8s-1.97,3.01,0,3c1.97-.01,3.76-.01,5.64-.02v-3l-9.64.04c-1.42,0-2.13,2.12-.76,2.8,5.47,2.7,11.68,1.73,17.38,3.53v-2.89c-5.84,2.37-12.08,3.33-18.28,4.26-.58.09-1.17.86-1.1,1.45.18,1.42,1.1,2.03,2.44,2.28s2.74.49,4.11.73c2.8.5,5.6.99,8.4,1.49l-1.1-1.45c0-.23.19-.19.03-.22-.08-.02-.46.29-.54.34-.36.22-.73.43-1.11.62-.78.4-1.59.75-2.42,1.03s-1.62.49-2.46.66c-.76.15-1.5.29-2.06.88-1.52,1.61.2,3.31,1.66,4,1.76.83,3.6,1.46,5.5,1.87s2.69-2.48.8-2.89c-1.05-.23-2.09-.51-3.1-.88-.46-.17-.92-.35-1.37-.55-.21-.09-.41-.19-.61-.29-.15-.07-.29-.14-.42-.22-.19-.13-.18-.07.02.19l-.2.76c-.2.38-.38.17.03.13.24-.02.49-.09.73-.14.52-.11,1.03-.24,1.54-.39.99-.29,1.95-.66,2.89-1.09,1.55-.69,4.2-1.76,4.1-3.81-.03-.61-.44-1.33-1.1-1.45-2.26-.4-4.53-.8-6.79-1.2-1.07-.19-2.14-.38-3.22-.57-.6-.11-1.19-.21-1.79-.32-.24-.04-.48-.08-.71-.13-.16-.02-.32-.05-.47-.09-.19-.07-.17-.01.05.16l.2.76-.03-.21-1.1,1.45c6.2-.93,12.44-1.89,18.28-4.26,1.33-.54,1.51-2.42,0-2.89-5.4-1.71-11.51-.68-16.66-3.22l-.76,2.8,9.64-.04c1.93,0,1.93-3.01,0-3s-3.76.01-5.64.02v3c1.75-.17,3.39.05,5.03.69v-2.89c-2.48.63-4.87,1.52-7.17,2.62-1.43.68-.61,2.72.76,2.8,2.6.13,5.29.27,7.61,1.58l.36-2.74c-2.9.64-5.82,1.02-8.79,1.13-1.98.07-1.87,2.76,0,3,2.64.34,5.26.79,7.87,1.31l.4-2.95c-2.93-.17-5.85-.46-8.75-.91l-.4,2.95c2.48-.11,4.96-.23,7.44-.34,1.21-.06,2.42-.11,3.63-.17.61-.03,1.21-.06,1.82-.08.26-.01.53-.03.79-.03.15,0,.35.08.27,0l.66-2.51c-5.01.94-10.09,1.36-15.19,1.29-1.64-.02-2.11,2.69-.4,2.95s3.54.61,5.29,1.02l.4-2.95c-.93.09-1.87.11-2.79-.02v2.89c3.95-.71,7.98-.86,11.98-.52v-3l-12.35,1.51c-1.6.2-2.13,2.42-.4,2.95,3.34,1.02,6.87,1.34,10.34.91.8-.1,1.5-.62,1.5-1.5,0-.73-.69-1.6-1.5-1.5h0v-.04Z"/>
  </g>
  <path class="st1" d="M-462.47,123.07l3.14,31.15c.22,2.16,1.93,3.87,4.09,4.09l31.15,3.14-31.15,3.14c-2.16.22-3.87,1.93-4.09,4.09l-3.14,31.15-3.14-31.15c-.22-2.16-1.93-3.87-4.09-4.09l-31.15-3.14,31.15-3.14c2.16-.22,3.87-1.93,4.09-4.09l3.14-31.15Z"/>
  <path class="st4" d="M183.86,114.86c0,20.59-5.9,36.5-17.69,47.7-11.79,11.2-36.53,16.81-74.24,16.81s-62.91-5.61-74.61-16.81C5.61,151.36,0,132.21.5,105.13h88.44c0,15.79.08,24.42.25,25.9.17,1.83,1.08,2.74,2.74,2.74s2.57-.91,2.74-2.74c0-1.66.08-12.3.25-31.88l-42.6-.5C17.6,98.15.17,84.62,0,58.03c0-16.61,5.9-30.44,17.69-41.47S54.22,0,91.93,0c36.53-.5,60.99,4.85,73.37,16.07,12.38,11.2,18.39,29.61,18.06,55.18l-88.44.5c-.17-14.28-.25-22.09-.25-23.42-.17-1.83-1.08-2.74-2.74-2.74s-2.57.91-2.74,2.74c-.17,1.49-.25,11.3-.25,29.4h54.81c26.57,0,39.94,12.38,40.11,37.12h0Z"/>
  <path class="st4" d="M80.56,135.64c9.46,1.23,18.93,2.44,28.39,3.66,1.23.15,2.33-1.08,2.47-2.18.15-1.29-.59-2.33-1.8-2.77-4.94-1.75-9.88-3.49-14.82-5.24v4.85c.45-.17.84-.3,1.31-.34,2.91-.17,3.34-3.96.67-4.96-5.29-1.97-10.8-3.12-16.43-3.54v5.04c4.06-.47,8.11-.96,12.18-1.43,1.24-.15,2.32-.84,2.47-2.18.15-1.23-.57-2.42-1.8-2.77-4.35-1.19-8.68-2.39-13.03-3.58l-.67,4.96c6.95.32,13.89-.17,20.74-1.34,2.08-.35,2.5-3.71.6-4.6-5.81-2.72-11.93-4.32-18.33-4.75v5.04c4.6-.05,9.17-.35,13.74-.92,1.34-.17,2.52-1.04,2.52-2.52,0-1.34-1.16-2.55-2.52-2.52-3.07.08-6.16.17-9.24.24-3.24.08-3.24,4.9,0,5.04,5.19.24,10.38.45,15.57.69l-1.28-4.7c-3.02,1.6-6.25,2.64-9.61,3.26-1.34.24-2.1,1.86-1.76,3.11.39,1.41,1.76,2,3.11,1.76,3.78-.69,7.41-1.98,10.82-3.76,2.32-1.21,1.09-4.59-1.28-4.7-5.19-.24-10.38-.45-15.57-.69v5.04c3.07-.08,6.16-.17,9.24-.24v-5.04c-4.57.57-9.14.87-13.74.92-3.28.03-3.21,4.82,0,5.04,5.46.37,10.83,1.75,15.79,4.06l.6-4.6c-6.4,1.11-12.9,1.46-19.4,1.16-2.87-.13-3.38,4.2-.67,4.96,4.35,1.19,8.68,2.39,13.03,3.58l.67-4.96c-4.06.47-8.11.96-12.18,1.43-3.17.37-3.29,4.79,0,5.04,5.17.39,10.23,1.56,15.08,3.36l.67-4.96c-.92.05-1.78.18-2.65.52-2.33.89-2.44,4,0,4.85,4.94,1.75,9.88,3.49,14.82,5.24l.67-4.96c-9.46-1.23-18.93-2.44-28.39-3.66-1.34-.17-2.52,1.28-2.52,2.52,0,1.51,1.16,2.35,2.52,2.52h0l-.02.03Z"/>
  <path class="st4" d="M103.62,127.37c-5.43.67-10.8.25-16.02-1.34l-.67,4.96c6.92-.84,13.82-1.7,20.74-2.54,3.19-.39,3.29-4.75,0-5.04-7.19-.62-14.36-.24-21.47,1.06-2.35.42-2.45,4.52,0,4.85,2.03.29,3.98.4,6.03.22,2.65-.25,3.63-4.25.67-4.96s-5.9-1.26-8.89-1.71l-.67,4.96c9,.12,18.01-.69,26.86-2.35,1.91-.35,2.37-2.96,1.11-4.22-1.58-1.58-3.58-1.51-5.66-1.41-2.33.1-4.67.22-7.02.32-4.77.22-9.56.44-14.33.66-2.67.12-3.61,4.5-.67,4.96,5.32.82,10.67,1.39,16.02,1.7,2.81.15,3.46-4.38.67-4.96-4.82-.97-9.68-1.75-14.56-2.39v5.04c5.43-.2,10.82-.91,16.11-2.08,2.13-.47,2.44-3.56.6-4.6-4.7-2.65-10.04-3.07-15.32-3.34l1.28,4.7c3.48-1.66,7.11-2.94,10.85-3.88,2.6-.67,2.17-4.01,0-4.85-3.11-1.21-6.47-1.66-9.78-1.34s-3.31,5.06,0,5.04c3.31-.02,6.32-.02,9.47-.03v-5.04l-16.19.07c-2.39,0-3.58,3.56-1.28,4.7,9.19,4.54,19.62,2.91,29.19,5.93v-4.85c-9.81,3.98-20.29,5.59-30.71,7.16-.97.15-1.97,1.44-1.85,2.44.3,2.39,1.85,3.41,4.1,3.83s4.6.82,6.9,1.23c4.7.84,9.41,1.66,14.11,2.5l-1.85-2.44c-.02-.39.32-.32.05-.37-.13-.03-.77.49-.91.57-.6.37-1.23.72-1.86,1.04-1.31.67-2.67,1.26-4.06,1.73s-2.72.82-4.13,1.11c-1.28.25-2.52.49-3.46,1.48-2.55,2.7.34,5.56,2.79,6.72,2.96,1.39,6.05,2.45,9.24,3.14s4.52-4.17,1.34-4.85c-1.76-.39-3.51-.86-5.21-1.48-.77-.29-1.55-.59-2.3-.92-.35-.15-.69-.32-1.02-.49-.25-.12-.49-.24-.71-.37-.32-.22-.3-.12.03.32l-.34,1.28c-.34.64-.64.29.05.22.4-.03.82-.15,1.23-.24.87-.18,1.73-.4,2.59-.66,1.66-.49,3.28-1.11,4.85-1.83,2.6-1.16,7.05-2.96,6.89-6.4-.05-1.02-.74-2.23-1.85-2.44-3.8-.67-7.61-1.34-11.41-2.02-1.8-.32-3.59-.64-5.41-.96-1.01-.18-2-.35-3.01-.54-.4-.07-.81-.13-1.19-.22-.27-.03-.54-.08-.79-.15-.32-.12-.29-.02.08.27l.34,1.28-.05-.35-1.85,2.44c10.41-1.56,20.9-3.17,30.71-7.16,2.23-.91,2.54-4.06,0-4.85-9.07-2.87-19.33-1.14-27.98-5.41l-1.28,4.7,16.19-.07c3.24,0,3.24-5.06,0-5.04s-6.32.02-9.47.03v5.04c2.94-.29,5.69.08,8.45,1.16v-4.85c-4.17,1.06-8.18,2.55-12.04,4.4-2.4,1.14-1.02,4.57,1.28,4.7,4.37.22,8.89.45,12.78,2.65l.6-4.6c-4.87,1.08-9.78,1.71-14.76,1.9-3.33.12-3.14,4.64,0,5.04,4.43.57,8.84,1.33,13.22,2.2l.67-4.96c-4.92-.29-9.83-.77-14.7-1.53l-.67,4.96c4.17-.18,8.33-.39,12.5-.57,2.03-.1,4.06-.18,6.1-.29,1.02-.05,2.03-.1,3.06-.13.44-.02.89-.05,1.33-.05.25,0,.59.13.45,0l1.11-4.22c-8.42,1.58-16.95,2.28-25.51,2.17-2.75-.03-3.54,4.52-.67,4.96s5.95,1.02,8.89,1.71l.67-4.96c-1.56.15-3.14.18-4.69-.03v4.85c6.63-1.19,13.4-1.44,20.12-.87v-5.04c-6.92.84-13.82,1.7-20.74,2.54-2.69.34-3.58,4.06-.67,4.96,5.61,1.71,11.54,2.25,17.37,1.53,1.34-.17,2.52-1.04,2.52-2.52,0-1.23-1.16-2.69-2.52-2.52h0l-.02-.07Z"/>
  <path d="M91.81,10.31l5.27,52.32c.37,3.63,3.24,6.5,6.87,6.87l52.32,5.27-52.32,5.27c-3.63.37-6.5,3.24-6.87,6.87l-5.27,52.32-5.27-52.32c-.37-3.63-3.24-6.5-6.87-6.87l-52.32-5.27,52.32-5.27c3.63-.37,6.5-3.24,6.87-6.87l5.27-52.32Z"/>
</svg>