<?xml version="1.0" encoding="UTF-8"?>
<svg id="Layer_1" data-name="Layer 1" xmlns="http://www.w3.org/2000/svg" viewBox="0 0 269.15 513.75">
  <defs>
    <style>
      .cls-1 {
        fill: #fff;
      }
    </style>
  </defs>
  <path class="cls-1" d="M226.28,487.48l-3.69,2.84-10.79,6.25-7.95,3.97-11.07,4.54c-9.65,3.69-33.79,8.23-44.29,8.52h-14.76c-10.79.57-21.29-.57-32.08-2.27l-14.76-3.41h-3.12c0-.28-14.48-5.68-14.48-5.68l-5.39-1.99-10.22-5.39c-2.56-1.42-4.83-2.56-7.1-4.26l-7.95-5.96-3.69-3.41-6.25-5.96-2.27-2.56c-1.7-2.27-3.97-4.54-5.68-6.81l-5.96-9.09-2.27-4.26-3.41-7.1c-3.41-8.23-5.68-16.75-7.67-25.55l-.85-8.8-.57-10.5V0h130.32v269.72l-17.03,73.53-63.31,13.63-24.13,5.11,87.16,18.74,16.75,73.25,3.97,16.47,21.58-90.85,84.32-18.45-30.95-7.1-53.38-11.64-14.48-61.04-2.27-11.07v-133.16h130.6v259.78c0,11.92-1.99,23-4.83,34.35l-3.12,9.37-2.84,6.53-1.7,4.26-6.53,11.07-6.25,7.95-2.56,2.84-9.94,9.37c-1.7,1.7-3.69,2.84-5.68,4.26l.57.57Z"/>
</svg>