<?xml version="1.0" encoding="UTF-8"?>
<svg id="Layer_1" data-name="Layer 1" xmlns="http://www.w3.org/2000/svg" viewBox="0 0 108.81 186.57">
  <defs>
    <style>
      .cls-1 {
        fill: #fff;
      }
    </style>
  </defs>
  <path class="cls-1" d="M108.81,80.5v-26.6c0-7-1.6-13.6-3.4-20l-.8-1.9-1.2-2.7-1.5-3.1-1.3-2.3-1.3-1.9c-.5-.7-1.3-1.2-1.4-2.2-1.6-1.3-3.1-3.6-4.6-5C83.31,5.3,70.31.1,56.11,0c-9.2,0-18,1-26.4,4.8-11.5,5.1-19.9,14.2-24.9,25.7C1.31,38.6.21,46.9,0,55.8c-.2,13.1,3.8,25.7,12.6,35.4,6.6,7.2,13.9,10.8,21.7,13.9,11.9,4.6,21.4,13.9,26.3,25.6l22.4,5.6-22.3,5.5-6.3,24.5-6.2-24.1-22.7-5.9,22.6-5.9c1.4-1.2.8-4.6,0-6.4-5.3-18.3-29.4-22.9-48-22.4v37.8c.1,22.8,17.1,41.7,39.4,45.8,10.9,2,21.6,1.9,32.3-.9,20.2-5.2,35-22.5,36.5-43.3v-18.7l-.2-1.3-.5-4.7-.8-4.6-1.1-4.7c-.3-1.4-.7-2.6-1.4-3.9-.5-.8-1-1.7-1.2-2.7,0-.2,0-.5-.1-.6-1.5-2.1-2.9-4.4-3.9-6.7-.1-.2-.4-.4-.7-.5-.8-.4-1.1-1.3-1.6-2-.3-.4-.7-1.2-1.1-1.5-3.7-3-7.5-7.2-12.2-9.7-7.8-4.2-15.9-7.1-24.7-9.8l-4.6,16.5-6.1-24.1-22.7-6.1,22.8-5.9,6.1-23.9,6.2,24,22.3,5.9-21.1,5.5c2,3.7,30.8,17.8,46.7,18.9l.4.1Z"/>
</svg>