<?xml version="1.0" encoding="UTF-8"?>
<svg id="Layer_1" xmlns="http://www.w3.org/2000/svg" version="1.1" viewBox="0 250 1366 240">
  <!-- Generator: Adobe Illustrator 30.3.0, SVG Export Plug-In . SVG Version: 2.1.3 Build 182)  -->
  <path d="M123.2,466.5l-1.3,1-3.8,2.2-2.8,1.4-3.9,1.6c-3.4,1.3-11.9,2.9-15.6,3h-5.2c-3.8.2-7.5-.2-11.3-.8l-5.2-1.2h-1.1c0-.1-5.1-2-5.1-2l-1.9-.7-3.6-1.9c-.9-.5-1.7-.9-2.5-1.5l-2.8-2.1-1.3-1.2-2.2-2.1-.8-.9c-.6-.8-1.4-1.6-2-2.4l-2.1-3.2-.8-1.5-1.2-2.5c-1.2-2.9-2-5.9-2.7-9l-.3-3.1-.2-3.7v-84.2s0-56.9,0-56.9h45.9s0,95,0,95l-6,25.9-22.3,4.8-8.5,1.8,30.7,6.6,5.9,25.8,1.4,5.8,7.6-32,29.7-6.5-10.9-2.5-18.8-4.1-5.1-21.5-.8-3.9v-46.9s46,0,46,0v91.5c0,4.2-.7,8.1-1.7,12.1l-1.1,3.3-1,2.3-.6,1.5-2.3,3.9-2.2,2.8-.9,1-3.5,3.3c-.6.6-1.3,1-2,1.5Z"/>
  <g>
    <path d="M189.6,331c-1,0-1.5.8-1.5,2.1v141h-46.3v-141c0-25.7,18.5-41.7,47.9-41.7s47.9,16,47.9,41.7v141h-46.3v-141c0-1.3-.5-2.1-1.5-2.1Z"/>
    <path d="M240.5,435v-102.7c0-28.3,18.3-42.2,47.6-40.9,16,.8,32.2,1.3,48.1,1.3v38.3c-20.8,0-34.7-1.3-46.1-1.3s-3.3,1-3.3,4.6v23.7h3.1c3.3-10.6,11.6-16.2,20.6-16.2,16.5,0,25.7,12.9,25.7,37.8v55.3c0,25.7-18.3,41.7-47.6,41.7s-48.1-16-48.1-41.7ZM288.4,434.5c1,0,1.5-.8,1.5-2.1v-54c0-1.3-.5-2.1-1.5-2.1s-1.5.8-1.5,2.1v54c0,1.3.5,2.1,1.5,2.1Z"/>
    <path d="M339.4,431.4v-78.2h46.3v82.6c0,.8.5,1.3,1.5,1.3s1.5-.5,1.5-1.3v-81.3c0-23.9-14.2-38.3-14.2-60.5h46.3c0,16.5,14.2,32.4,14.2,54.6v82.9c0,27.8-18.5,45.3-47.9,45.3s-47.9-17.5-47.9-45.3Z"/>
    <path d="M438.2,330.5c0-23.9,15.4-39.1,40.1-39.1s25.2,5.1,31.1,13.6h2.6c5.9-8.5,18-13.6,31.1-13.6,24.7,0,40.1,15.2,40.1,39.1v143.6h-46.3v-138.5c0-1.3-.5-2.1-1.5-2.1s-1.5.8-1.5,2.1v99.3c0,25.7-18.5,41.7-48.1,41.7s-47.6-16-47.6-41.7v-104.5ZM486.1,333.6c-1,0-1.5.8-1.5,2.1v96.8c0,1.3.5,2.1,1.5,2.1s1.5-.8,1.5-2.1v-96.8c0-1.3-.5-2.1-1.5-2.1Z"/>
    <path d="M634.3,331c-1,0-1.5.8-1.5,2.1v65.4c0,37.1,12.6,54,12.6,75.7h-46.3c0-21.6-12.6-28.3-12.6-75.7v-65.4c0-25.7,18.5-41.7,48.1-41.7s47.6,16,47.6,41.7v72.6h-46.3v-72.6c0-1.3-.5-2.1-1.5-2.1Z"/>
    <path d="M733.1,434.5c1,0,1.5-.8,1.5-2.1v-99.3c0-1.3-.5-2.1-1.5-2.1s-1.5.8-1.5,2.1v37.6h-46.3v-37.6c0-25.7,18.5-41.7,47.9-41.7s47.9,16,47.9,41.7v101.9c0,25.7-18.5,41.7-47.9,41.7s-47.9-16-47.9-41.7v-61.3h46.3v58.7c0,1.3.5,2.1,1.5,2.1Z"/>
    <path d="M831.4,375.8c0-18.8,8-34,26.8-34s16,4.1,19.6,16.2h3.1v-23.9c0-1-.5-1.8-1.5-1.8s-1.5.8-1.5,1.8v4.4h-46.3v-6.2c0-25.7,18.5-40.9,48.1-40.9s47.6,15.2,47.6,40.9v102.7c0,25.7-18.5,41.7-48.1,41.7s-47.6-16-47.6-41.7v-59.2ZM879.3,434.5c1,0,1.5-.8,1.5-2.1v-53.8c0-1.3-.5-2.1-1.5-2.1s-1.5.8-1.5,2.1v53.8c0,1.3.5,2.1,1.5,2.1Z"/>
    <path d="M978.1,434.5c1,0,1.5-.8,1.5-2.1v-99.3c0-1.3-.5-2.1-1.5-2.1s-1.5.8-1.5,2.1v37.6h-46.3v-37.6c0-25.7,18.5-41.7,47.9-41.7s47.9,16,47.9,41.7v101.9c0,25.7-18.5,41.7-47.9,41.7s-47.9-16-47.9-41.7v-61.3h46.3v58.7c0,1.3.5,2.1,1.5,2.1Z"/>
    <path d="M1098,432.7c-5.7,0-16-4.1-19.6-16.2h-2.3c3.1,27.5,11.8,39.6,11.8,57.6h-46.3c0-15.7-12.6-28.3-12.6-75.4v-65.6c0-25.7,18.5-41.7,48.1-41.7s47.6,16,47.6,41.7v65.6c0,18.8-8,34-26.8,34ZM1076.9,398.2c1,0,1.5-.8,1.5-2.1v-63.1c0-1.3-.5-2.1-1.5-2.1s-1.5.8-1.5,2.1v63.1c0,1.3.5,2.1,1.5,2.1Z"/>
    <path d="M1175.8,331c-1,0-1.5.8-1.5,2.1v141h-46.3v-141c0-25.7,18.5-41.7,47.9-41.7s47.9,16,47.9,41.7v141h-46.3v-141c0-1.3-.5-2.1-1.5-2.1Z"/>
    <path d="M1226.7,431.4v-78.2h46.3v82.6c0,.8.5,1.3,1.5,1.3s1.5-.5,1.5-1.3v-81.3c0-23.9-14.2-38.3-14.2-60.5h46.3c0,16.5,14.2,32.4,14.2,54.6v82.9c0,27.8-18.5,45.3-47.9,45.3s-47.9-17.5-47.9-45.3Z"/>
  </g>
</svg>