<?xml version="1.0" encoding="UTF-8"?>
<svg id="Layer_1" xmlns="http://www.w3.org/2000/svg" version="1.1" viewBox="0 0 1366 145">
  <!-- Generator: Adobe Illustrator 29.8.1, SVG Export Plug-In . SVG Version: 2.1.1 Build 2)  -->
  <defs>
    <style>
      .st0, .st1 {
        fill: #fff;
      }

      .st1, .st2 {
        display: none;
      }
    </style>
  </defs>
  <path d="M1069.62,72.68h0c-1,0-1.81.81-1.81,1.81v27.53c0,1-.81,1.81-1.81,1.81h-47.7c-1,0-1.81-.81-1.81-1.81V4.78c0-1,.81-1.81,1.81-1.81h55.89c19.48,0,32.73,2.79,39.75,8.38s10.53,13.67,10.53,24.25c0,13.93-2.42,23.2-7.25,27.81-.47.45-.64,1.12-.47,1.74l9.64,36.4c.3,1.15-.56,2.27-1.75,2.27h-50.48c-.98,0-1.78-.77-1.81-1.75l-.92-27.65c-.03-.98-.83-1.75-1.81-1.75h0ZM1069.74,27.14c-.99,0-1.53.54-1.63,1.63-.1,1.09-.15,5.34-.15,12.76s.05,11.54.15,12.68.64,1.71,1.63,1.71,1.53-.57,1.63-1.71.15-5.36.15-12.68-.05-11.67-.15-12.76-.64-1.63-1.63-1.63Z"/>
  <path d="M1232.15,55.17c1.98,18.99-.54,32.36-7.56,40.12-7.02,7.76-21.75,11.59-44.2,11.5-22.45,0-37.18-3.34-44.2-10.01-7.02-6.67-10.53-21.14-10.53-43.38s3.51-36.96,10.53-43.53C1143.21,3.3,1157.94,0,1180.39,0c22.45.1,37.2,3.88,44.27,11.35,7.07,7.47,9.57,20.94,7.49,40.42h-49.98c0-14.34-.05-22-.15-22.99-.1-1.09-.64-1.63-1.63-1.63s-1.53.54-1.63,1.63c-.1,1.09-.15,9.29-.15,24.62s.05,23.41.15,24.55.64,1.71,1.63,1.71,1.53-.54,1.63-1.63.15-8.7.15-22.84h49.98v-.03Z"/>
  <path d="M1290.96,41.53h0c.94,0,1.71-.76,1.71-1.71V4.67c0-.94.76-1.71,1.71-1.71h47.91c.94,0,1.71.76,1.71,1.71v97.45c0,.94-.76,1.71-1.71,1.71h-47.91c-.94,0-1.71-.76-1.71-1.71v-35.15c0-.94-.76-1.71-1.71-1.71h0c-.94,0-1.71.76-1.71,1.71v35.15c0,.94-.76,1.71-1.71,1.71h-47.91c-.94,0-1.71-.76-1.71-1.71V4.67c0-.94.76-1.71,1.71-1.71h47.91c.94,0,1.71.76,1.71,1.71v35.15c0,.94.76,1.71,1.71,1.71Z"/>
  <polygon class="st1" points="240 -16.04 246.32 -.07 263.41 5.84 246.32 11.75 240 27.72 233.68 11.75 216.59 5.84 233.68 -.07 240 -16.04"/>
  <polygon class="st1" points="241.29 54.8 247.62 70.77 264.7 76.68 247.62 82.59 241.29 98.57 234.97 82.59 217.89 76.68 234.97 70.77 241.29 54.8"/>
  <g class="st2">
    <path d="M121.9,155.9c5.63.73,11.27,1.45,16.9,2.18.73.09,1.39-.64,1.47-1.3.09-.77-.35-1.39-1.07-1.65-2.94-1.04-5.88-2.08-8.82-3.12v2.89c.27-.1.5-.18.78-.2,1.73-.1,1.99-2.36.4-2.95-3.15-1.17-6.43-1.86-9.78-2.11v3c2.42-.28,4.83-.57,7.25-.85.74-.09,1.38-.5,1.47-1.3.09-.73-.34-1.44-1.07-1.65-2.59-.71-5.17-1.42-7.76-2.13l-.4,2.95c4.14.19,8.27-.1,12.35-.8,1.24-.21,1.49-2.21.36-2.74-3.46-1.62-7.1-2.57-10.91-2.83v3c2.74-.03,5.46-.21,8.18-.55.8-.1,1.5-.62,1.5-1.5,0-.8-.69-1.52-1.5-1.5-1.83.05-3.67.1-5.5.14-1.93.05-1.93,2.92,0,3,3.09.14,6.18.27,9.27.41l-.76-2.8c-1.8.95-3.72,1.57-5.72,1.94-.8.14-1.25,1.11-1.05,1.85.23.84,1.05,1.19,1.85,1.05,2.25-.41,4.41-1.18,6.44-2.24,1.38-.72.65-2.73-.76-2.8-3.09-.14-6.18-.27-9.27-.41v3c1.83-.05,3.67-.1,5.5-.14v-3c-2.72.34-5.44.52-8.18.55-1.95.02-1.91,2.87,0,3,3.25.22,6.45,1.04,9.4,2.42l.36-2.74c-3.81.66-7.68.87-11.55.69-1.71-.08-2.01,2.5-.4,2.95,2.59.71,5.17,1.42,7.76,2.13l.4-2.95c-2.42.28-4.83.57-7.25.85-1.89.22-1.96,2.85,0,3,3.08.23,6.09.93,8.98,2l.4-2.95c-.55.03-1.06.11-1.58.31-1.39.53-1.45,2.38,0,2.89,2.94,1.04,5.88,2.08,8.82,3.12l.4-2.95c-5.63-.73-11.27-1.45-16.9-2.18-.8-.1-1.5.76-1.5,1.5,0,.9.69,1.4,1.5,1.5h0v.02h0Z"/>
  </g>
  <g class="st2">
    <path d="M135.64,150.98c-3.23.4-6.43.15-9.54-.8l-.4,2.95,12.35-1.51c1.9-.23,1.96-2.83,0-3-4.28-.37-8.55-.14-12.78.63-1.4.25-1.46,2.69,0,2.89,1.21.17,2.37.24,3.59.13,1.58-.15,2.16-2.53.4-2.95s-3.51-.75-5.29-1.02l-.4,2.95c5.36.07,10.72-.41,15.99-1.4,1.14-.21,1.41-1.76.66-2.51-.94-.94-2.13-.9-3.37-.84-1.39.06-2.78.13-4.18.19-2.84.13-5.69.26-8.53.39-1.59.07-2.15,2.68-.4,2.95,3.17.49,6.35.83,9.54,1.01,1.67.09,2.06-2.61.4-2.95-2.87-.58-5.76-1.04-8.67-1.42v3c3.23-.12,6.44-.54,9.59-1.24,1.27-.28,1.45-2.12.36-2.74-2.8-1.58-5.98-1.83-9.12-1.99l.76,2.8c2.07-.99,4.23-1.75,6.46-2.31,1.55-.4,1.29-2.39,0-2.89-1.85-.72-3.85-.99-5.82-.8s-1.97,3.01,0,3c1.97,0,3.76,0,5.64-.02v-3l-9.64.04c-1.42,0-2.13,2.12-.76,2.8,5.47,2.7,11.68,1.73,17.38,3.53v-2.89c-5.84,2.37-12.08,3.33-18.28,4.26-.58.09-1.17.86-1.1,1.45.18,1.42,1.1,2.03,2.44,2.28s2.74.49,4.11.73c2.8.5,5.6.99,8.4,1.49l-1.1-1.45c0-.23.19-.19.03-.22-.08-.02-.46.29-.54.34-.36.22-.73.43-1.11.62-.78.4-1.59.75-2.42,1.03s-1.62.49-2.46.66c-.76.15-1.5.29-2.06.88-1.52,1.61.2,3.31,1.66,4,1.76.83,3.6,1.46,5.5,1.87s2.69-2.48.8-2.89c-1.05-.23-2.09-.51-3.1-.88-.46-.17-.92-.35-1.37-.55-.21-.09-.41-.19-.61-.29-.15-.07-.29-.14-.42-.22-.19-.13-.18-.07.02.19l-.2.76c-.2.38-.38.17.03.13.24-.02.49-.09.73-.14.52-.11,1.03-.24,1.54-.39.99-.29,1.95-.66,2.89-1.09,1.55-.69,4.2-1.76,4.1-3.81-.03-.61-.44-1.33-1.1-1.45-2.26-.4-4.53-.8-6.79-1.2-1.07-.19-2.14-.38-3.22-.57-.6-.11-1.19-.21-1.79-.32-.24-.04-.48-.08-.71-.13-.16-.02-.32-.05-.47-.09-.19-.07-.17,0,.05.16l.2.76-.03-.21-1.1,1.45c6.2-.93,12.44-1.89,18.28-4.26,1.33-.54,1.51-2.42,0-2.89-5.4-1.71-11.51-.68-16.66-3.22l-.76,2.8,9.64-.04c1.93,0,1.93-3.01,0-3s-3.76,0-5.64.02v3c1.75-.17,3.39.05,5.03.69v-2.89c-2.48.63-4.87,1.52-7.17,2.62-1.43.68-.61,2.72.76,2.8,2.6.13,5.29.27,7.61,1.58l.36-2.74c-2.9.64-5.82,1.02-8.79,1.13-1.98.07-1.87,2.76,0,3,2.64.34,5.26.79,7.87,1.31l.4-2.95c-2.93-.17-5.85-.46-8.75-.91l-.4,2.95c2.48-.11,4.96-.23,7.44-.34,1.21-.06,2.42-.11,3.63-.17.61-.03,1.21-.06,1.82-.08.26,0,.53-.03.79-.03.15,0,.35.08.27,0l.66-2.51c-5.01.94-10.09,1.36-15.19,1.29-1.64-.02-2.11,2.69-.4,2.95s3.54.61,5.29,1.02l.4-2.95c-.93.09-1.87.11-2.79-.02v2.89c3.95-.71,7.98-.86,11.98-.52v-3l-12.35,1.51c-1.6.2-2.13,2.42-.4,2.95,3.34,1.02,6.87,1.34,10.34.91.8-.1,1.5-.62,1.5-1.5,0-.73-.69-1.6-1.5-1.5h0v-.04h-.01Z"/>
  </g>
  <path class="st1" d="M128.6,81.29l3.14,31.15c.22,2.16,1.93,3.87,4.09,4.09l31.15,3.14-31.15,3.14c-2.16.22-3.87,1.93-4.09,4.09l-3.14,31.15-3.14-31.15c-.22-2.16-1.93-3.87-4.09-4.09l-31.15-3.14,31.15-3.14c2.16-.22,3.87-1.93,4.09-4.09l3.14-31.15h0Z"/>
  <path d="M183.55,69.38c0,12.26-3.51,21.73-10.53,28.4s-21.75,10.01-44.2,10.01-37.45-3.34-44.42-10.01-10.31-18.07-10.01-34.19h52.65c0,9.4.05,14.54.15,15.42.1,1.09.64,1.63,1.63,1.63s1.53-.54,1.63-1.63c0-.99.05-7.32.15-18.98l-25.36-.3c-20.67-.3-31.05-8.35-31.15-24.18,0-9.89,3.51-18.12,10.53-24.69S106.37,1,128.82,1c21.75-.3,36.31,2.89,43.68,9.57,7.37,6.67,10.95,17.63,10.75,32.85l-52.65.3c-.1-8.5-.15-13.15-.15-13.94-.1-1.09-.64-1.63-1.63-1.63s-1.53.54-1.63,1.63c-.1.89-.15,6.73-.15,17.5h32.63c15.82,0,23.78,7.37,23.88,22.1h0Z"/>
  <path d="M191.55,2.97h44.81c1.8,0,3.25,1.46,3.25,3.25v94.35c0,1.8-1.46,3.25-3.25,3.25h-44.81c-1.8,0-3.25-1.46-3.25-3.25V6.22c0-1.8,1.46-3.25,3.25-3.25Z"/>
  <path d="M306.94,39.57l2.97-1.48-7.42-34.11h50.72v100.86h-52.21l-8.9-35.6-2.97,1.48,7.42,34.11h-49.98l.29-97.63c0-1.78,1.45-3.22,3.23-3.22h47.95l8.9,35.6h0Z"/>
  <path d="M408.1,71.98v31.15c0,.94-.76,1.71-1.71,1.71h-47.76c-1,0-1.78-.85-1.7-1.85l5.77-67.95s0-.08.01-.11l4.52-29.49c.13-.83.84-1.45,1.69-1.45h81.76c.84,0,1.56.61,1.69,1.45l4.52,29.49s.01.08.01.11l5.77,67.95c.08,1-.7,1.85-1.7,1.85h-47.76c-.94,0-1.71-.76-1.71-1.71v-31.15c0-.94-.76-1.71-1.71-1.71h0c-.94,0-1.71.76-1.71,1.71h.02ZM411.51,57.44v-24.92c0-.94-.76-1.71-1.71-1.71h0c-.94,0-1.71.76-1.71,1.71v24.92c0,.94.76,1.71,1.71,1.71h0c.94,0,1.71-.76,1.71-1.71Z"/>
  <path d="M558.34,7.44v30.15c0,1.91-1.55,3.46-3.46,3.46h-14.13c-1.91,0-3.46,1.55-3.46,3.46v56.85c0,1.91-1.55,3.46-3.46,3.46h-44.54c-1.91,0-3.46-1.55-3.46-3.46v-56.85c0-1.91-1.55-3.46-3.46-3.46h-14.13c-1.91,0-3.46-1.55-3.46-3.46V7.44c0-1.91,1.55-3.46,3.46-3.46h86.66c1.91,0,3.46,1.55,3.46,3.46h-.02,0Z"/>
  <path d="M613.96,104.83h-48.21c-1.72,0-3.11-1.39-3.11-3.11V7.08c0-1.72,1.39-3.11,3.11-3.11h45.1c1.72,0,3.11,1.39,3.11,3.11v62.01c0,1.72,1.39,3.11,3.11,3.11h28.79c1.72,0,3.11,1.39,3.11,3.11v26.41c0,1.72-1.39,3.11-3.11,3.11h-31.9,0Z"/>
  <path d="M653.56,104.83l-.14-97.6c0-1.8,1.45-3.25,3.25-3.25h86.03v35.6h-37.82v2.97h34.85v23.14h-34.85v3.56h37.82v35.6h-89.14v-.02h0Z"/>
  <path d="M850.6,32.22h.02c.92.04,1.69-.69,1.7-1.61l.13-25.02c0-.89.73-1.62,1.62-1.62h60.47c.87,0,1.58.68,1.62,1.55l1.41,29.4v.11l-1.45,68.21c-.02.88-.74,1.59-1.62,1.59h-43.67c-.95,0-1.69-.81-1.62-1.75l2.85-36.47c.07-.91-.63-1.71-1.55-1.75h-.02c-.88-.04-1.63.62-1.69,1.5l-2.88,36.98c-.07.85-.77,1.5-1.62,1.5h-27.09c-.85,0-1.56-.66-1.62-1.51l-2.61-37.03c-.06-.85-.77-1.51-1.62-1.51h0c-.94,0-1.69.8-1.62,1.74l2.71,36.56c.07.94-.68,1.74-1.62,1.74h-43.82c-.88,0-1.61-.71-1.62-1.59l-1.3-68.5v-.12l1.55-29.11c.05-.86.76-1.54,1.62-1.54h60.31c.9,0,1.63.73,1.62,1.63l-.13,24.99c0,.87.68,1.59,1.55,1.63,0,0-.01,0-.01,0Z"/>
  <path d="M923.79,103.35l-.14-97.89c0-.82.66-1.49,1.48-1.49h86.32c.82,0,1.48.66,1.48,1.48v32.63c0,.82-.66,1.48-1.48,1.48h-34.85c-.82,0-1.48.66-1.48,1.48h0c0,.82.66,1.48,1.48,1.48h31.89c.82,0,1.48.66,1.48,1.48v20.17c0,.82-.66,1.48-1.48,1.48h-31.89c-.82,0-1.48.66-1.48,1.48v.59c0,.82.66,1.48,1.48,1.48h34.85c.82,0,1.48.66,1.48,1.48v32.63c0,.82-.66,1.48-1.48,1.48h-86.17c-.82,0-1.48-.66-1.48-1.48v.04h-.01Z"/>
  <path d="M122.05,81.75c5.63.73,11.27,1.45,16.9,2.18.73.09,1.39-.64,1.47-1.3.09-.77-.35-1.39-1.07-1.65-2.94-1.04-5.88-2.08-8.82-3.12v2.89c.27-.1.5-.18.78-.2,1.73-.1,1.99-2.36.4-2.95-3.15-1.17-6.43-1.86-9.78-2.11v3c2.42-.28,4.83-.57,7.25-.85.74-.09,1.38-.5,1.47-1.3.09-.73-.34-1.44-1.07-1.65-2.59-.71-5.17-1.42-7.76-2.13l-.4,2.95c4.14.19,8.27-.1,12.35-.8,1.24-.21,1.49-2.21.36-2.74-3.46-1.62-7.1-2.57-10.91-2.83v3c2.74-.03,5.46-.21,8.18-.55.8-.1,1.5-.62,1.5-1.5,0-.8-.69-1.52-1.5-1.5-1.83.05-3.67.1-5.5.14-1.93.05-1.93,2.92,0,3,3.09.14,6.18.27,9.27.41l-.76-2.8c-1.8.95-3.72,1.57-5.72,1.94-.8.14-1.25,1.11-1.05,1.85.23.84,1.05,1.19,1.85,1.05,2.25-.41,4.41-1.18,6.44-2.24,1.38-.72.65-2.73-.76-2.8-3.09-.14-6.18-.27-9.27-.41v3c1.83-.05,3.67-.1,5.5-.14v-3c-2.72.34-5.44.52-8.18.55-1.95.02-1.91,2.87,0,3,3.25.22,6.45,1.04,9.4,2.42l.36-2.74c-3.81.66-7.68.87-11.55.69-1.71-.08-2.01,2.5-.4,2.95,2.59.71,5.17,1.42,7.76,2.13l.4-2.95c-2.42.28-4.83.57-7.25.85-1.89.22-1.96,2.85,0,3,3.08.23,6.09.93,8.98,2l.4-2.95c-.55.03-1.06.11-1.58.31-1.39.53-1.45,2.38,0,2.89l8.82,3.12.4-2.95c-5.63-.73-11.27-1.45-16.9-2.18-.8-.1-1.5.76-1.5,1.5,0,.9.69,1.4,1.5,1.5h0v.02h0Z"/>
  <path d="M135.78,76.83c-3.23.4-6.43.15-9.54-.8l-.4,2.95c4.12-.5,8.23-1.01,12.35-1.51,1.9-.23,1.96-2.83,0-3-4.28-.37-8.55-.14-12.78.63-1.4.25-1.46,2.69,0,2.89,1.21.17,2.37.24,3.59.13,1.58-.15,2.16-2.53.4-2.95s-3.51-.75-5.29-1.02l-.4,2.95c5.36.07,10.72-.41,15.99-1.4,1.14-.21,1.41-1.76.66-2.51-.94-.94-2.13-.9-3.37-.84-1.39.06-2.78.13-4.18.19-2.84.13-5.69.26-8.53.39-1.59.07-2.15,2.68-.4,2.95,3.17.49,6.35.83,9.54,1.01,1.67.09,2.06-2.61.4-2.95-2.87-.58-5.76-1.04-8.67-1.42v3c3.23-.12,6.44-.54,9.59-1.24,1.27-.28,1.45-2.12.36-2.74-2.8-1.58-5.98-1.83-9.12-1.99l.76,2.8c2.07-.99,4.23-1.75,6.46-2.31,1.55-.4,1.29-2.39,0-2.89-1.85-.72-3.85-.99-5.82-.8s-1.97,3.01,0,3c1.97-.01,3.76-.01,5.64-.02v-3l-9.64.04c-1.42,0-2.13,2.12-.76,2.8,5.47,2.7,11.68,1.73,17.38,3.53v-2.89c-5.84,2.37-12.08,3.33-18.28,4.26-.58.09-1.17.86-1.1,1.45.18,1.42,1.1,2.03,2.44,2.28s2.74.49,4.11.73c2.8.5,5.6.99,8.4,1.49l-1.1-1.45c0-.23.19-.19.03-.22-.08-.02-.46.29-.54.34-.36.22-.73.43-1.11.62-.78.4-1.59.75-2.42,1.03s-1.62.49-2.46.66c-.76.15-1.5.29-2.06.88-1.52,1.61.2,3.31,1.66,4,1.76.83,3.6,1.46,5.5,1.87s2.69-2.48.8-2.89c-1.05-.23-2.09-.51-3.1-.88-.46-.17-.92-.35-1.37-.55-.21-.09-.41-.19-.61-.29-.15-.07-.29-.14-.42-.22-.19-.13-.18-.07.02.19l-.2.76c-.2.38-.38.17.03.13.24-.02.49-.09.73-.14.52-.11,1.03-.24,1.54-.39.99-.29,1.95-.66,2.89-1.09,1.55-.69,4.2-1.76,4.1-3.81-.03-.61-.44-1.33-1.1-1.45-2.26-.4-4.53-.8-6.79-1.2-1.07-.19-2.14-.38-3.22-.57-.6-.11-1.19-.21-1.79-.32-.24-.04-.48-.08-.71-.13-.16-.02-.32-.05-.47-.09-.19-.07-.17-.01.05.16l.2.76-.03-.21-1.1,1.45c6.2-.93,12.44-1.89,18.28-4.26,1.33-.54,1.51-2.42,0-2.89-5.4-1.71-11.51-.68-16.66-3.22l-.76,2.8,9.64-.04c1.93,0,1.93-3.01,0-3s-3.76.01-5.64.02v3c1.75-.17,3.39.05,5.03.69v-2.89c-2.48.63-4.87,1.52-7.17,2.62-1.43.68-.61,2.72.76,2.8,2.6.13,5.29.27,7.61,1.58l.36-2.74c-2.9.64-5.82,1.02-8.79,1.13-1.98.07-1.87,2.76,0,3,2.64.34,5.26.79,7.87,1.31l.4-2.95c-2.93-.17-5.85-.46-8.75-.91l-.4,2.95c2.48-.11,4.96-.23,7.44-.34,1.21-.06,2.42-.11,3.63-.17.61-.03,1.21-.06,1.82-.08.26-.01.53-.03.79-.03.15,0,.35.08.27,0l.66-2.51c-5.01.94-10.09,1.36-15.19,1.29-1.64-.02-2.11,2.69-.4,2.95s3.54.61,5.29,1.02l.4-2.95c-.93.09-1.87.11-2.79-.02v2.89c3.95-.71,7.98-.86,11.98-.52v-3c-4.12.5-8.23,1.01-12.35,1.51-1.6.2-2.13,2.42-.4,2.95,3.34,1.02,6.87,1.34,10.34.91.8-.1,1.5-.62,1.5-1.5,0-.73-.69-1.6-1.5-1.5h0v-.04h-.01Z"/>
  <path class="st0" d="M128.75,7.14l3.14,31.15c.22,2.16,1.93,3.87,4.09,4.09l31.15,3.14-31.15,3.14c-2.16.22-3.87,1.93-4.09,4.09l-3.14,31.15-3.14-31.15c-.22-2.16-1.93-3.87-4.09-4.09l-31.15-3.14,31.15-3.14c2.16-.22,3.87-1.93,4.09-4.09,0,0,3.14-31.15,3.14-31.15Z"/>
</svg>