<svg viewBox="75.29133858267717 281.08799999999997 1209.2710911136107 235.00799999999998" version="1.1" xmlns="http://www.w3.org/2000/svg" id="Layer_1" style="max-height: 500px" width="1209.2710911136107" height="235.00799999999998">
  
  <defs>
    <style>
      .st0 {
        fill: #010101;
      }
    </style>
  </defs>
  <g>
    <path d="M125.5-38.3l-1.3,1-3.8,2.2-2.8,1.4-3.9,1.6c-3.4,1.3-11.9,2.9-15.6,3h-5.2c-3.8.2-7.5-.2-11.3-.8l-5.2-1.2h-1.1c0-.1-5.1-2-5.1-2l-1.9-.7-3.6-1.9c-.9-.5-1.7-.9-2.5-1.5l-2.8-2.1-1.3-1.2-2.2-2.1-.8-.9c-.6-.8-1.4-1.6-2-2.4l-2.1-3.2-.8-1.5-1.2-2.5c-1.2-2.9-2-5.9-2.7-9l-.3-3.1-.2-3.7v-84.2s0-56.9,0-56.9h45.9s0,95,0,95l-6,25.9-22.3,4.8-8.5,1.8,30.7,6.6,5.9,25.8,1.4,5.8,7.6-32,29.7-6.5-10.9-2.5-18.8-4.1-5.1-21.5-.8-3.9v-46.9s46,0,46,0v91.5c0,4.2-.7,8.1-1.7,12.1l-1.1,3.3-1,2.3-.6,1.5-2.3,3.9-2.2,2.8-.9,1-3.5,3.3c-.6.6-1.3,1-2,1.5Z"/>
    <g>
      <path d="M191.8-173.8c-1,0-1.5.8-1.5,2.1V-30.7h-46.3v-141c0-25.7,18.5-41.7,47.9-41.7s47.9,16,47.9,41.7V-30.7h-46.3v-141c0-1.3-.5-2.1-1.5-2.1Z"/>
      <path d="M242.8-69.8v-102.7c0-28.3,18.3-42.2,47.6-40.9,16,.8,32.2,1.3,48.1,1.3v38.3c-20.8,0-34.7-1.3-46.1-1.3s-3.3,1-3.3,4.6v23.7h3.1c3.3-10.6,11.6-16.2,20.6-16.2,16.5,0,25.7,12.9,25.7,37.8v55.3c0,25.7-18.3,41.7-47.6,41.7s-48.1-16-48.1-41.7ZM290.6-70.3c1,0,1.5-.8,1.5-2.1v-54c0-1.3-.5-2.1-1.5-2.1s-1.5.8-1.5,2.1v54c0,1.3.5,2.1,1.5,2.1Z"/>
      <path d="M341.6-73.4v-78.2h46.3v82.6c0,.8.5,1.3,1.5,1.3s1.5-.5,1.5-1.3v-81.3c0-23.9-14.2-38.3-14.2-60.5h46.3c0,16.5,14.2,32.4,14.2,54.6v82.9c0,27.8-18.5,45.3-47.9,45.3s-47.9-17.5-47.9-45.3Z"/>
      <path d="M440.4-174.3c0-23.9,15.4-39.1,40.1-39.1s25.2,5.1,31.1,13.6h2.6c5.9-8.5,18-13.6,31.1-13.6,24.7,0,40.1,15.2,40.1,39.1V-30.7h-46.3v-138.5c0-1.3-.5-2.1-1.5-2.1s-1.5.8-1.5,2.1v99.3c0,25.7-18.5,41.7-48.1,41.7s-47.6-16-47.6-41.7v-104.5ZM488.3-171.2c-1,0-1.5.8-1.5,2.1v96.8c0,1.3.5,2.1,1.5,2.1s1.5-.8,1.5-2.1v-96.8c0-1.3-.5-2.1-1.5-2.1Z"/>
      <path d="M636.5-173.8c-1,0-1.5.8-1.5,2.1v65.4c0,37.1,12.6,54,12.6,75.7h-46.3c0-21.6-12.6-28.3-12.6-75.7v-65.4c0-25.7,18.5-41.7,48.1-41.7s47.6,16,47.6,41.7v72.6h-46.3v-72.6c0-1.3-.5-2.1-1.5-2.1Z"/>
      <path d="M735.3-70.3c1,0,1.5-.8,1.5-2.1v-99.3c0-1.3-.5-2.1-1.5-2.1s-1.5.8-1.5,2.1v37.6h-46.3v-37.6c0-25.7,18.5-41.7,47.9-41.7s47.9,16,47.9,41.7v101.9c0,25.7-18.5,41.7-47.9,41.7s-47.9-16-47.9-41.7v-61.3h46.3v58.7c0,1.3.5,2.1,1.5,2.1Z"/>
      <path d="M833.6-129c0-18.8,8-34,26.8-34s16,4.1,19.6,16.2h3.1v-23.9c0-1-.5-1.8-1.5-1.8s-1.5.8-1.5,1.8v4.4h-46.3v-6.2c0-25.7,18.5-40.9,48.1-40.9s47.6,15.2,47.6,40.9v102.7c0,25.7-18.5,41.7-48.1,41.7s-47.6-16-47.6-41.7v-59.2ZM881.5-70.3c1,0,1.5-.8,1.5-2.1v-53.8c0-1.3-.5-2.1-1.5-2.1s-1.5.8-1.5,2.1v53.8c0,1.3.5,2.1,1.5,2.1Z"/>
      <path d="M980.3-70.3c1,0,1.5-.8,1.5-2.1v-99.3c0-1.3-.5-2.1-1.5-2.1s-1.5.8-1.5,2.1v37.6h-46.3v-37.6c0-25.7,18.5-41.7,47.9-41.7s47.9,16,47.9,41.7v101.9c0,25.7-18.5,41.7-47.9,41.7s-47.9-16-47.9-41.7v-61.3h46.3v58.7c0,1.3.5,2.1,1.5,2.1Z"/>
      <path d="M1100.3-72.1c-5.7,0-16-4.1-19.6-16.2h-2.3c3.1,27.5,11.8,39.6,11.8,57.6h-46.3c0-15.7-12.6-28.3-12.6-75.4v-65.6c0-25.7,18.5-41.7,48.1-41.7s47.6,16,47.6,41.7v65.6c0,18.8-8,34-26.8,34ZM1079.2-106.6c1,0,1.5-.8,1.5-2.1v-63.1c0-1.3-.5-2.1-1.5-2.1s-1.5.8-1.5,2.1v63.1c0,1.3.5,2.1,1.5,2.1Z"/>
      <path d="M1178-173.8c-1,0-1.5.8-1.5,2.1V-30.7h-46.3v-141c0-25.7,18.5-41.7,47.9-41.7s47.9,16,47.9,41.7V-30.7h-46.3v-141c0-1.3-.5-2.1-1.5-2.1Z"/>
      <path d="M1228.9-73.4v-78.2h46.3v82.6c0,.8.5,1.3,1.5,1.3s1.5-.5,1.5-1.3v-81.3c0-23.9-14.2-38.3-14.2-60.5h46.3c0,16.5,14.2,32.4,14.2,54.6v82.9c0,27.8-18.5,45.3-47.9,45.3s-47.9-17.5-47.9-45.3Z"/>
    </g>
  </g>
  <g>
    <path d="M908,328.3c-7.4-17.6-30-23.8-48.2-19.5-7.5,1.8-13.9,5.5-19,11.6-11-13.4-30.1-15.2-46.2-10.9-16.2,4.5-26.3,17.7-27,34.6v147.5c0,0,45.6,0,45.6,0v-142.2c.2-1.5,1-2.1,2-2.1.6,0,1.5.3,1.7,1.5v142.8s45.1,0,45.1,0v-142.2c0-1.5,1-2.1,1.9-2.1.8,0,1.9.6,1.9,2.1v142.2s45.6,0,45.6,0v-45.9s0-100.5,0-100.5c0-6-1.3-11.5-3.5-16.9Z" class="st0"/>
    <path d="M1100.5,318.6c-8-6.2-17.3-9-27.6-9h-54.5s0,182,0,182h53.8c7.6.1,14.5-1.2,21.4-4.2,14.8-7.3,20-19.5,20-36.4l-.2-104.8c0-11.1-4.8-20.8-12.9-27.6ZM1067.7,452.2c0,1.8-1,2.2-1.8,2.3-.9,0-1.8-.5-1.8-1.9v-105.1c0-1.3,1.7-1.4,2.3-1.1.8.4,1.3,1,1.3,2.4v103.4Z" class="st0"/>
    <path d="M339.4,325.4c-.3-.6-.7-1.2-1.2-1.7-1.9-2.7-4.1-5.2-6.6-7.3-8-6.2-17.3-9-27.6-9h-19.3s0,0,0,0c0,0,0,0,0,0h-35.2s0,109,0,109c0,0,0,0,0,0v75.4c0,0,46.1,0,46.1,0v-144c.3-1.3,1-1.9,1.7-2.1.3-.1,1,0,1.5.4,0,.2,0,.3,0,.5v69.8c0,0,.6,0,.6,0v75.2s45.9,0,45.9,0v-145.9c-.7-7.6-2.3-14.3-6-20.4Z" class="st0"/>
    <path d="M194,388v-26.6c0-7-1.6-13.6-3.4-20l-.8-1.9-1.2-2.7-1.5-3.1-1.3-2.3-1.3-1.9c-.5-.7-1.3-1.2-1.4-2.2-1.6-1.3-3.1-3.6-4.6-5-10-9.5-23-14.7-37.2-14.8-9.2,0-18,1-26.4,4.8-11.5,5.1-19.9,14.2-24.9,25.7-3.5,8.1-4.6,16.4-4.8,25.3-.2,13.1,3.8,25.7,12.6,35.4,6.6,7.2,13.9,10.8,21.7,13.9,11.9,4.6,21.4,13.9,26.3,25.6l22.4,5.6-22.3,5.5-6.3,24.5-6.2-24.1-22.7-5.9,22.6-5.9c1.4-1.2.8-4.6,0-6.4-5.3-18.3-29.4-22.9-48-22.4v37.8c.1,22.8,17.1,41.7,39.4,45.8,10.9,2,21.6,1.9,32.3-.9,20.2-5.2,35-22.5,36.5-43.3v-18.7s-.2-1.3-.2-1.3l-.5-4.7-.8-4.6-1.1-4.7c-.3-1.4-.7-2.6-1.4-3.9-.5-.8-1-1.7-1.2-2.7,0-.2,0-.5-.1-.6-1.5-2.1-2.9-4.4-3.9-6.7-.1-.2-.4-.4-.7-.5-.8-.4-1.1-1.3-1.6-2-.3-.4-.7-1.2-1.1-1.5-3.7-3-7.5-7.2-12.2-9.7-7.8-4.2-15.9-7.1-24.7-9.8l-4.6,16.5-6.1-24.1-22.7-6.1,22.8-5.9,6.1-23.9,6.2,24,22.3,5.9-21.1,5.5c2,3.7,30.8,17.8,46.7,18.9Z" class="st0"/>
    <path d="M662.7,344.5c.4-.2,1.5,0,1.9.9v43.3c.1,0,47,0,47,0l-.2-44.3c-1.2-15.8-10.4-28.3-25.3-33.5-14.6-4.5-30.2-4.5-44.9-.1l-4,1.5c-10.3,4-18,12.5-20.7,23.3-.4,1.5-1.6,7.6-1.6,9.9v111.1c.2,8.2,3.1,15.9,8,22.2,13.4,17.2,42.1,17.7,62.4,12.4,15.4-5.1,25.3-17.8,26.1-34l.2-33.7h-46.9s0,31.2,0,31.2c0,1-.6,1.8-1.4,2-.8.1-1.9-.6-1.9-2.1v-33.9s50.2,0,50.2,0v-29s-50.1,0-50.1,0v-45.6c0-1,.8-1.5,1.3-1.7Z" class="st0"/>
    <path d="M966.6,388.6h46.2s-.2-43.2-.2-43.2c-.5-7-2-13.6-5.6-19.6-5.8-8.9-14.8-14.6-25.3-16.7-22-4.4-50.6-1-60.8,20.1-2.8,5.7-4,11.8-4,18.2v108.5c.1,18.3,12.6,32.3,30.5,36.3,10.9,2.4,22,2.3,32.9.5,10.4-1.7,19.2-6.8,25.7-15.1,4.2-6.3,6.6-13.4,6.7-21.1v-33.1c0,0-46.2,0-46.2,0v31.1c0,1.2-.9,2-1.7,1.9-.5,0-1.7-.6-1.7-1.6v-34.4s49.7,0,49.7,0v-29c0,0-49.7,0-49.7,0v-45.4c0-1.5,1.6-2.1,2.3-1.9.8.2,1.5,1.1,1.2,2.3v41.9Z" class="st0"/>
    <path d="M532.1,347.4v-36.8c0-.9-2.5-1.1-3-1.1h-38.1c-.7.4-1.5-.1-2.2-.1h-10.7c0,0-3.2.2-3.2.2-.4,0-.9,0-1.3,0h-2.7c0-.1-8.7,0-8.7,0h-7.4c0,0-1.9,0-1.9,0l-.4,9.1c0,1.1-.2,2.2,0,3.3l.4,5.3v6.8s-.1,13.3-.1,13.3l11.6.3c.7,0,1.3.2,2,0,.7-.2,1.5-.4,2.4-.3l.2,3.2-.2,2.1v82.5c0,0,.1,17.5.1,17.5v38.8c0,0,2.7.2,2.7.2h8.1s25.4,0,25.4,0h6.6s3.4,0,3.4,0v-14.4c.1,0,.2-15.4.2-15.4v-89.2c0,0,0-25.3,0-25.3h16.9Z" class="st0"/>
    <path d="M609.7,474.7v-14s0-3.4,0-3.4v-4.3s-25.3-.2-25.3-.2v-143.2c-.1,0-46.3,0-46.3,0l-.3,17.7v30.7c.1,0,0,28.7,0,28.7v36c0,0,0,29.3,0,29.3,0,17.7,10.4,33.1,27.5,37.6,6.7,1.8,13.3,2.1,20.3,2l23.9-.2v-3.5c0,0,0-6,0-6v-7.3Z" class="st0"/>
    <polygon points="1119.1 309.7 1119.1 491.6 1165.3 491.7 1165.5 475.6 1165.4 462.9 1165.4 458.9 1165.4 396.4 1165.4 392.2 1165.4 325 1165.5 322.3 1165.5 314.9 1165.2 309.7 1119.1 309.7" class="st0"/>
    <path d="M242.3,306.4l-44.6.2v6.3s-.1,2.8-.1,2.8v13.5s0,2.1,0,2.1v6s0,6.2,0,6.2l.2,42.7v10.2s0,4.1,0,4.1v8.2c0,0,0,18.3,0,18.3v46.8s-.1,17.9-.1,17.9h46.6s0-172.7,0-172.7v-7.4c.1,0,.2-3.4.2-3.4,0-.4,0-1.1-.3-1.4-.4-.4-1.1-.3-1.5-.3Z" class="st0"/>
    <path d="M1267.7,351.4c0-8.8-1.1-17.1-5.3-24.6-4.9-8.9-13.6-14.7-23.4-17.1-12.2-3-24.7-3-36.9-.2-17.9,4.1-29.4,16.4-30.6,34.9l-.2,15.7v27.8c.1,0,46.5-.3,46.5-.3v-41.4c0-1.1,1-1.8,1.7-1.8.6,0,1.7.6,1.7,1.8v44.8s-3.2,0-3.2,0h0s-25.5,0-25.5,0c-9.3,0-16.5,7-19.6,15.1-.6,1.5-.7,3-1,4.5l-.6,3.4v36.6c0,6.3-.1,12.6,2.2,18l.7,1.6c2.8,8.4,8.3,14.9,17.6,19.5,6.9,3,13.8,4.3,21.4,4.3h53.8c0,0,0-32.9,0-32.9.3-1.8.4-3.7.4-5.6l.2-104.2ZM1221.3,454.6c0,1.4-.8,2.1-1.7,2.1-.6,0-1.2-.4-1.6-1.1,0-.3-.1-.6-.1-1v-23s0-11.6,0-11.6h3.4s0,34.6,0,34.6Z" class="st0"/>
    <path d="M420.1,308.7c-12.2-3-24.7-3-36.9-.2-17.9,4.1-29.4,16.4-30.6,34.9l-.2,15.7v27.8c.1,0,46.5-.3,46.5-.3v-41.4c0-1.1,1-1.8,1.7-1.8.6,0,1.7.6,1.7,1.8v44.8s-3.2,0-3.2,0h0s-25.5,0-25.5,0c-9.3,0-16.5,7-19.6,15.1-.6,1.5-.7,3-1,4.5l-.6,3.4v36.6c0,6.3-.1,12.6,2.2,18l.7,1.6c2.8,8.4,8.3,14.9,17.6,19.5,6.9,3,13.8,4.3,21.4,4.3h53.8c0,0,0-32.9,0-32.9.3-1.8.4-3.7.4-5.6l.2-104.2c0-8.8-1.1-17.1-5.3-24.6-4.9-8.9-13.6-14.7-23.4-17.1ZM402.4,453.6c0,1.4-.8,2.1-1.7,2.1-.6,0-1.2-.4-1.6-1.1,0-.3-.1-.6-.1-1v-23s0-11.6,0-11.6h3.4s0,34.6,0,34.6Z" class="st0"/>
  </g>
  <g>
    <path d="M918.9,968.3c-7.4-17.6-30-23.8-48.2-19.5-7.5,1.8-13.9,5.5-19,11.6-11-13.4-30.1-15.2-46.2-10.9-16.2,4.5-26.3,17.7-27,34.6v147.5c0,0,45.6,0,45.6,0v-142.2c.2-1.5,1-2.1,2-2.1.6,0,1.5.3,1.7,1.5v142.8s45.1,0,45.1,0v-142.2c0-1.5,1-2.1,1.9-2.1.8,0,1.9.6,1.9,2.1v142.2s45.6,0,45.6,0v-45.9s0-100.5,0-100.5c0-6-1.3-11.5-3.5-16.9Z" class="st0"/>
    <path d="M1111.4,958.5c-8-6.2-17.3-9-27.6-9h-54.5s0,182,0,182h53.8c7.6.1,14.5-1.2,21.4-4.2,14.8-7.3,20-19.5,20-36.4l-.2-104.8c0-11.1-4.8-20.8-12.9-27.6ZM1078.6,1092.1c0,1.8-1,2.2-1.8,2.3-.9,0-1.8-.5-1.8-1.9v-105.1c0-1.3,1.7-1.4,2.3-1.1.8.4,1.3,1,1.3,2.4v103.4Z" class="st0"/>
    <path d="M350.4,965.4c-.3-.6-.7-1.2-1.2-1.7-1.9-2.7-4.1-5.2-6.6-7.3-8-6.2-17.3-9-27.6-9h-19.3s0,0,0,0c0,0,0,0,0,0h-35.2s0,109,0,109c0,0,0,0,0,0v75.4c0,0,46.1,0,46.1,0v-144c.3-1.3,1-1.9,1.7-2.1.3-.1,1,0,1.5.4,0,.2,0,.3,0,.5v69.8c0,0,.6,0,.6,0v75.2s45.9,0,45.9,0v-145.9c-.7-7.6-2.3-14.3-6-20.4Z" class="st0"/>
    <path d="M205,1028v-26.6c0-7-1.6-13.6-3.4-20l-.8-1.9-1.2-2.7-1.5-3.1-1.3-2.3-1.3-1.9c-.5-.7-1.3-1.2-1.4-2.2-1.6-1.3-3.1-3.6-4.6-5-10-9.5-23-14.7-37.2-14.8-9.2,0-18,1-26.4,4.8-11.5,5.1-19.9,14.2-24.9,25.7-3.5,8.1-4.6,16.4-4.8,25.3-.2,13.1,3.8,25.7,12.6,35.4,6.6,7.2,13.9,10.8,21.7,13.9,11.9,4.6,21.4,13.9,26.3,25.6l22.4,5.6-22.3,5.5-6.3,24.5-6.2-24.1-22.7-5.9,22.6-5.9c1.4-1.2.8-4.6,0-6.4-5.3-18.3-29.4-22.9-48-22.4v37.8c.1,22.8,17.1,41.7,39.4,45.8,10.9,2,21.6,1.9,32.3-.9,20.2-5.2,35-22.5,36.5-43.3v-18.7s-.2-1.3-.2-1.3l-.5-4.7-.8-4.6-1.1-4.7c-.3-1.4-.7-2.6-1.4-3.9-.5-.8-1-1.7-1.2-2.7,0-.2,0-.5-.1-.6-1.5-2.1-2.9-4.4-3.9-6.7-.1-.2-.4-.4-.7-.5-.8-.4-1.1-1.3-1.6-2-.3-.4-.7-1.2-1.1-1.5-3.7-3-7.5-7.2-12.2-9.7-7.8-4.2-15.9-7.1-24.7-9.8l-4.6,16.5-6.1-24.1-22.7-6.1,22.8-5.9,6.1-23.9,6.2,24,22.3,5.9-21.1,5.5c2,3.7,30.8,17.8,46.7,18.9Z" class="st0"/>
    <path d="M673.7,984.5c.4-.2,1.5,0,1.9.9v43.3c.1,0,47,0,47,0l-.2-44.3c-1.2-15.8-10.4-28.3-25.3-33.5-14.6-4.5-30.2-4.5-44.9-.1l-4,1.5c-10.3,4-18,12.5-20.7,23.3-.4,1.5-1.6,7.6-1.6,9.9v111.1c.2,8.2,3.1,15.9,8,22.2,13.4,17.2,42.1,17.7,62.4,12.4,15.4-5.1,25.3-17.8,26.1-34l.2-33.7h-46.9s0,31.2,0,31.2c0,1-.6,1.8-1.4,2-.8.1-1.9-.6-1.9-2.1v-33.9s50.2,0,50.2,0v-29s-50.1,0-50.1,0v-45.6c0-1,.8-1.5,1.3-1.7Z" class="st0"/>
    <path d="M977.6,1028.6h46.2s-.2-43.2-.2-43.2c-.5-7-2-13.6-5.6-19.6-5.8-8.9-14.8-14.6-25.3-16.7-22-4.4-50.6-1-60.8,20.1-2.8,5.7-4,11.8-4,18.2v108.5c.1,18.3,12.6,32.3,30.5,36.3,10.9,2.4,22,2.3,32.9.5,10.4-1.7,19.2-6.8,25.7-15.1,4.2-6.3,6.6-13.4,6.7-21.1v-33.1c0,0-46.2,0-46.2,0v31.1c0,1.2-.9,2-1.7,1.9-.5,0-1.7-.6-1.7-1.6v-34.4s49.7,0,49.7,0v-29c0,0-49.7,0-49.7,0v-45.4c0-1.5,1.6-2.1,2.3-1.9.8.2,1.5,1.1,1.2,2.3v41.9Z" class="st0"/>
    <path d="M543.1,987.4v-36.8c0-.9-2.5-1.1-3-1.1h-38.1c-.7.4-1.5-.1-2.2-.1h-10.7c0,0-3.2.2-3.2.2-.4,0-.9,0-1.3,0h-2.7c0-.1-8.7,0-8.7,0h-7.4c0,0-1.9,0-1.9,0l-.4,9.1c0,1.1-.2,2.2,0,3.3l.4,5.3v6.8s-.1,13.3-.1,13.3l11.6.3c.7,0,1.3.2,2,0,.7-.2,1.5-.4,2.4-.3l.2,3.2-.2,2.1v82.5c0,0,.1,17.5.1,17.5v38.8c0,0,2.7.2,2.7.2h8.1s25.4,0,25.4,0h6.6s3.4,0,3.4,0v-14.4c.1,0,.2-15.4.2-15.4v-89.2c0,0,0-25.3,0-25.3h16.9Z" class="st0"/>
    <path d="M620.6,1114.7v-14s0-3.4,0-3.4v-4.3s-25.3-.2-25.3-.2v-143.2c-.1,0-46.3,0-46.3,0l-.3,17.7v30.7c.1,0,0,28.7,0,28.7v36c0,0,0,29.3,0,29.3,0,17.7,10.4,33.1,27.5,37.6,6.7,1.8,13.3,2.1,20.3,2l23.9-.2v-3.5c0,0,0-6,0-6v-7.3Z" class="st0"/>
    <polygon points="1130 949.7 1130 1131.6 1176.3 1131.7 1176.4 1115.6 1176.4 1102.9 1176.3 1098.9 1176.3 1036.3 1176.4 1032.2 1176.4 965 1176.4 962.3 1176.5 954.9 1176.2 949.7 1130 949.7" class="st0"/>
    <path d="M253.3,946.4l-44.6.2v6.3s-.1,2.8-.1,2.8v13.5s0,2.1,0,2.1v6s0,6.2,0,6.2l.2,42.7v10.2s0,4.1,0,4.1v8.2c0,0,0,18.3,0,18.3v46.8s-.1,17.9-.1,17.9h46.6s0-172.7,0-172.7v-7.4c.1,0,.2-3.4.2-3.4,0-.4,0-1.1-.3-1.4-.4-.4-1.1-.3-1.5-.3Z" class="st0"/>
    <path d="M1278.7,991.4c0-8.8-1.1-17.1-5.3-24.6-4.9-8.9-13.6-14.7-23.4-17.1-12.2-3-24.7-3-36.9-.2-17.9,4.1-29.4,16.4-30.6,34.9l-.2,15.7v27.8c.1,0,46.5-.3,46.5-.3v-41.4c0-1.1,1-1.8,1.7-1.8.6,0,1.7.6,1.7,1.8v44.8s-3.2,0-3.2,0h0s-25.5,0-25.5,0c-9.3,0-16.5,7-19.6,15.1-.6,1.5-.7,3-1,4.5l-.6,3.4v36.6c0,6.3-.1,12.6,2.2,18l.7,1.6c2.8,8.4,8.3,14.9,17.6,19.5,6.9,3,13.8,4.3,21.4,4.3h53.8c0,0,0-32.9,0-32.9.3-1.8.4-3.7.4-5.6l.2-104.2ZM1232.3,1094.6c0,1.4-.8,2.1-1.7,2.1-.6,0-1.2-.4-1.6-1.1,0-.3-.1-.6-.1-1v-23s0-11.6,0-11.6h3.4s0,34.6,0,34.6Z" class="st0"/>
    <path d="M431.1,948.6c-12.2-3-24.7-3-36.9-.2-17.9,4.1-29.4,16.4-30.6,34.9l-.2,15.7v27.8c.1,0,46.5-.3,46.5-.3v-41.4c0-1.1,1-1.8,1.7-1.8.6,0,1.7.6,1.7,1.8v44.8s-3.2,0-3.2,0h0s-25.5,0-25.5,0c-9.3,0-16.5,7-19.6,15.1-.6,1.5-.7,3-1,4.5l-.6,3.4v36.6c0,6.3-.1,12.6,2.2,18l.7,1.6c2.8,8.4,8.3,14.9,17.6,19.5,6.9,3,13.8,4.3,21.4,4.3h53.8c0,0,0-32.9,0-32.9.3-1.8.4-3.7.4-5.6l.2-104.2c0-8.8-1.1-17.1-5.3-24.6-4.9-8.9-13.6-14.7-23.4-17.1ZM413.4,1093.6c0,1.4-.8,2.1-1.7,2.1-.6,0-1.2-.4-1.6-1.1,0-.3-.1-.6-.1-1v-23s0-11.6,0-11.6h3.4s0,34.6,0,34.6Z" class="st0"/>
  </g>
</svg>