<?xml version="1.0" encoding="UTF-8"?>
<svg id="Layer_1" xmlns="http://www.w3.org/2000/svg" version="1.1" viewBox="0 0 1291.56 226">
  <!-- Generator: Adobe Illustrator 29.8.1, SVG Export Plug-In . SVG Version: 2.1.1 Build 2)  -->
  <defs>
    <style>
      .st0 {
        font-size: 249.98px;
      }

      .st0, .st1, .st2 {
        isolation: isolate;
      }

      .st0, .st2 {
        font-family: 'LS_Elva_Black', LS_Elva;
      }

      .st3 {
        fill: none;
      }

      .st2 {
        font-size: 259.18px;
      }
    </style>
  </defs>
  <path d="M79.7,175.1l-1.3,1-3.8,2.2-2.8,1.4-3.9,1.6c-3.4,1.3-11.9,2.9-15.6,3h-5.2c-3.8.2-7.5-.2-11.3-.8l-5.2-1.2h-1.1c0-.1-5.1-2-5.1-2l-1.9-.7-3.6-1.9c-.9-.5-1.7-.9-2.5-1.5l-2.8-2.1-1.3-1.2-2.2-2.1-.8-.9c-.6-.8-1.4-1.6-2-2.4l-2.1-3.2-.8-1.5-1.2-2.5c-1.2-2.9-2-5.9-2.7-9l-.3-3.1L0,144.5V3.4h45.9v95l-6,25.9-22.3,4.8-8.5,1.8,30.7,6.6,5.9,25.8,1.4,5.8,7.6-32,29.7-6.5-10.9-2.5-18.8-4.1-5.1-21.5-.8-3.9v-46.9h46v91.5c0,4.2-.7,8.1-1.7,12.1l-1.1,3.3-1,2.3-.6,1.5-2.3,3.9-2.2,2.8-.9,1-3.5,3.3c-.6.6-1.3,1-2,1.5l.2.2h0Z"/>
  <path d="M146.1,39.6c-1,0-1.5.8-1.5,2.1v141h-46.3V41.7C98.3,16,116.8,0,146.2,0s47.9,16,47.9,41.7v141h-46.3V41.7c0-1.3-.5-2.1-1.5-2.1,0,0-.2,0-.2,0Z"/>
  <path d="M197,143.6V40.9c0-28.3,18.3-42.2,47.6-40.9,16,.8,32.2,1.3,48.1,1.3v38.3c-20.8,0-34.7-1.3-46.1-1.3s-3.3,1-3.3,4.6v23.7h3.1c3.3-10.6,11.6-16.2,20.6-16.2,16.5,0,25.7,12.9,25.7,37.8v55.3c0,25.7-18.3,41.7-47.6,41.7s-48.1-16-48.1-41.7v.1ZM244.9,143.1c1,0,1.5-.8,1.5-2.1v-54c0-1.3-.5-2.1-1.5-2.1s-1.5.8-1.5,2.1v54c0,1.3.5,2.1,1.5,2.1Z"/>
  <path d="M295.9,140V61.8h46.3v82.6c0,.8.5,1.3,1.5,1.3s1.5-.5,1.5-1.3V63.1c0-23.9-14.2-38.3-14.2-60.5h46.3c0,16.5,14.2,32.4,14.2,54.6v82.9c0,27.8-18.5,45.3-47.9,45.3s-47.9-17.5-47.9-45.3l.2-.1Z"/>
  <path d="M394.7,39.1c0-23.9,15.4-39.1,40.1-39.1s25.2,5.1,31.1,13.6h2.6c5.9-8.5,18-13.6,31.1-13.6,24.7,0,40.1,15.2,40.1,39.1v143.6h-46.3V44.2c0-1.3-.5-2.1-1.5-2.1s-1.5.8-1.5,2.1v99.3c0,25.7-18.5,41.7-48.1,41.7s-47.6-16-47.6-41.7V39v.1ZM442.6,42.2c-1,0-1.5.8-1.5,2.1v96.8c0,1.3.5,2.1,1.5,2.1s1.5-.8,1.5-2.1V44.3c0-1.3-.5-2.1-1.5-2.1Z"/>
  <path d="M590.8,39.6c-1,0-1.5.8-1.5,2.1v65.4c0,37.1,12.6,54,12.6,75.7h-46.3c0-21.6-12.6-28.3-12.6-75.7V41.7c0-25.7,18.5-41.7,48.1-41.7s47.6,16,47.6,41.7v72.6h-46.3V41.7c0-1.3-.5-2.1-1.5-2.1,0,0-.1,0-.1,0Z"/>
  <path d="M689.6,143.1c1,0,1.5-.8,1.5-2.1V41.7c0-1.3-.5-2.1-1.5-2.1s-1.5.8-1.5,2.1v37.6h-46.3v-37.6c0-25.7,18.5-41.7,47.9-41.7s47.9,16,47.9,41.7v101.9c0,25.7-18.5,41.7-47.9,41.7s-47.9-16-47.9-41.7v-61.3h46.3v58.7c0,1.3.5,2.1,1.5,2.1Z"/>
  <path d="M787.9,84.4c0-18.8,8-34,26.8-34s16,4.1,19.6,16.2h3.1v-23.9c0-1-.5-1.8-1.5-1.8s-1.5.8-1.5,1.8v4.4h-46.3v-6.2C788.1,15.2,806.6,0,836.2,0s47.6,15.2,47.6,40.9v102.7c0,25.7-18.5,41.7-48.1,41.7s-47.6-16-47.6-41.7v-59.2h-.2,0ZM835.8,143.1c1,0,1.5-.8,1.5-2.1v-53.8c0-1.3-.5-2.1-1.5-2.1s-1.5.8-1.5,2.1v53.8c0,1.3.5,2.1,1.5,2.1Z"/>
  <path d="M1243.56,39.65c-1,0-1.5.8-1.5,2.1v141h-46.3V41.75c0-25.7,18.5-41.7,47.9-41.7s47.9,16,47.9,41.7v141h-46.3V41.75c0-1.3-.5-2.1-1.5-2.1h-.2Z"/>
  <g class="st1">
    <text class="st2" transform="translate(1089.57 181.55)"><tspan x="0" y="0">ჩ</tspan></text>
  </g>
  <path d="M936.8,144.45c1,0,1.5-.8,1.5-2.1V43.05c0-1.3-.5-2.1-1.5-2.1s-1.5.8-1.5,2.1v37.6h-46.3v-37.6c0-25.7,18.5-41.7,47.9-41.7s47.9,16,47.9,41.7v101.9c0,25.7-18.5,41.7-47.9,41.7s-47.9-16-47.9-41.7v-61.3h46.3v58.7c0,1.3.5,2.1,1.5,2.1Z"/>
  <g class="st1">
    <text class="st0" transform="translate(990 179.82)"><tspan x="0" y="0">რ</tspan></text>
  </g>
  <line class="st3" x1="-26.54" y1="3.37" x2="1105.37" y2="3.37"/>
  <line class="st3" x1="-26.53" y1="3.31" x2="1063.02" y2="3.38"/>
</svg>